<svg xmlns="http://www.w3.org/2000/svg" height="16" width="20" viewBox="0 0 640 512"><!--!Font Awesome Free 6.5.1 by @fontawesome - https://fontawesome.com License - https://fontawesome.com/license/free Copyright 2023 Fonticons, Inc.--><path opacity="1" fill="#1E3050" d="M480 366.1l85.2-78.1c18.1-16.6 12.3-44.4-8.6-53.4L480 201.8V80c0-8.8-7.2-16-16-16h-48V24c0-13.3-10.7-24-24-24H248c-13.3 0-24 10.7-24 24v40h-48c-8.8 0-16 7.2-16 16v121.8l-76.1 32.6c-22.5 9.6-26.4 37.8-9.6 53.2L160 366.1C160 402.2 109 480 12 480c-6.6 0-12 5.4-12 12v8c0 6.6 5.4 12 12 12 65.5 0 117.3-29 150.8-73.1C173 480.8 210.9 512 256 512h128c45.1 0 83-31.2 93.2-73.1C510.9 483.3 562.8 512 628 512c6.6 0 12-5.4 12-12v-8c0-6.6-5.4-12-12-12-93.6 0-148-74.8-148-113.9zM256 32h128v32H256V32zm-64 64h256v92l-115.4-49.5a32 32 0 0 0 -25.2 0L192 188V96zm256 256v64c0 35.3-28.7 64-64 64H256c-35.3 0-64-28.7-64-64v-64l-96-88 224-96 224 96-96 88z"/></svg>